# xmcd CD database file
#
# Track frame offsets:
#	150
#	16538
#	32749
#
# Disc length: 653 seconds
#
# Revision: 9
# Processed by: cddbd v1.5.2PL0 Copyright (c) Steve Scherf et al.
# Submitted via: CDex 1.60beta1
#
DISCID=13028b03
DTITLE=月島きらり starring 久住小春 (モーニング娘。) - バラライカ
DYEAR=2006
DGENRE=JPop
TTITLE0=バラライカ
TTITLE1=水色メロディ
TTITLE2=バラライカ（Instrumental）
EXTD=YEAR: 2006
EXTT0=
EXTT1=
EXTT2=
PLAYORDER=
